HIERARCHY
ROOT hip
{
  OFFSET 0 0 0
  CHANNELS 6 Xposition Yposition Zposition Zrotation Yrotation Xrotation
  JOINT abdomen
  {
    OFFSET 0 20.6881 -0.73152
    CHANNELS 3 Zrotation Xrotation Yrotation
    JOINT chest
    {
      OFFSET 0 11.7043 -0.48768
      CHANNELS 3 Zrotation Xrotation Yrotation
      JOINT neck
      {
        OFFSET 0 22.1894 -2.19456
        CHANNELS 3 Zrotation Xrotation Yrotation
        JOINT head
        {
          OFFSET -0.24384 7.07133 1.2192
          CHANNELS 3 Zrotation Xrotation Yrotation
          JOINT leftEye
          {
            OFFSET 4.14528 8.04674 8.04672
            CHANNELS 3 Zrotation Xrotation Yrotation
            End Site
            {
              OFFSET 1 0 0
            }
          }
          JOINT rightEye
          {
            OFFSET -3.6576 8.04674 8.04672
            CHANNELS 3 Zrotation Xrotation Yrotation
            End Site
            {
              OFFSET 1 0 0
            }
          }
        }
      }
      JOINT rCollar
      {
        OFFSET -2.68224 19.2634 -4.8768
        CHANNELS 3 Zrotation Xrotation Yrotation
        JOINT rShldr
        {
          OFFSET -8.77824 -1.95073 1.46304
          CHANNELS 3 Zrotation Xrotation Yrotation
          JOINT rForeArm
          {
            OFFSET -28.1742 -1.7115 0.48768
            CHANNELS 3 Zrotation Xrotation Yrotation
            JOINT rHand
            {
              OFFSET -22.5879 0.773209 7.07136
              CHANNELS 3 Zrotation Xrotation Yrotation
              JOINT rThumb1
              {
                OFFSET -1.2192 -0.487915 3.41376
                CHANNELS 3 Zrotation Xrotation Yrotation
                JOINT rThumb2
                {
                  OFFSET -3.37035 -0.52449 3.41376
                  CHANNELS 3 Zrotation Xrotation Yrotation
                  End Site
                  {
                    OFFSET -1.78271 -1.18214 1.43049
                  }
                }
              }
              JOINT rIndex1
              {
                OFFSET -7.75947 0.938293 5.60832
                CHANNELS 3 Zrotation Xrotation Yrotation
                JOINT rIndex2
                {
                  OFFSET -2.54057 -0.884171 1.56538
                  CHANNELS 3 Zrotation Xrotation Yrotation
                  End Site
                  {
                    OFFSET -1.62519 -0.234802 1.16502
                  }
                }
              }
              JOINT rMid1
              {
                OFFSET -8.24714 1.18213 3.41376
                CHANNELS 3 Zrotation Xrotation Yrotation
                JOINT rMid2
                {
                  OFFSET -3.10165 -0.590103 1.0647
                  CHANNELS 3 Zrotation Xrotation Yrotation
                  End Site
                  {
                    OFFSET -2.48547 -0.328903 0.83742
                  }
                }
              }
              JOINT rRing1
              {
                OFFSET -8.82822 0.546677 1.51678
                CHANNELS 3 Zrotation Xrotation Yrotation
                JOINT rRing2
                {
                  OFFSET -2.60934 -0.819778 -0.0198488
                  CHANNELS 3 Zrotation Xrotation Yrotation
                  End Site
                  {
                    OFFSET -2.33842 -0.294052 0.168128
                  }
                }
              }
              JOINT rPinky1
              {
                OFFSET -8.27202 -0.0477905 -0.4584
                CHANNELS 3 Zrotation Xrotation Yrotation
                JOINT rPinky2
                {
                  OFFSET -1.82734 -0.647385 -0.700984
                  CHANNELS 3 Zrotation Xrotation Yrotation
                  End Site
                  {
                    OFFSET -1.69225 -0.51767 -0.607171
                  }
                }
              }
            }
          }
        }
      }
      JOINT lCollar
      {
        OFFSET 2.68224 19.2634 -4.8768
        CHANNELS 3 Zrotation Xrotation Yrotation
        JOINT lShldr
        {
          OFFSET 8.77824 -1.95073 1.46304
          CHANNELS 3 Zrotation Xrotation Yrotation
          JOINT lForeArm
          {
            OFFSET 28.1742 -1.7115 0.48768
            CHANNELS 3 Zrotation Xrotation Yrotation
            JOINT lHand
            {
              OFFSET 22.5879 0.773209 7.07136
              CHANNELS 3 Zrotation Xrotation Yrotation
              JOINT lThumb1
              {
                OFFSET 1.2192 -0.487915 3.41376
                CHANNELS 3 Zrotation Xrotation Yrotation
                JOINT lThumb2
                {
                  OFFSET 3.37035 -0.52449 3.41376
                  CHANNELS 3 Zrotation Xrotation Yrotation
                  End Site
                  {
                    OFFSET 1.78271 -1.18214 1.43049
                  }
                }
              }
              JOINT lIndex1
              {
                OFFSET 7.75947 0.938293 5.60832
                CHANNELS 3 Zrotation Xrotation Yrotation
                JOINT lIndex2
                {
                  OFFSET 2.54057 -0.884171 1.56538
                  CHANNELS 3 Zrotation Xrotation Yrotation
                  End Site
                  {
                    OFFSET 1.62519 -0.234802 1.16502
                  }
                }
              }
              JOINT lMid1
              {
                OFFSET 8.24714 1.18213 3.41376
                CHANNELS 3 Zrotation Xrotation Yrotation
                JOINT lMid2
                {
                  OFFSET 3.10165 -0.590103 1.0647
                  CHANNELS 3 Zrotation Xrotation Yrotation
                  End Site
                  {
                    OFFSET 2.48547 -0.328903 0.83742
                  }
                }
              }
              JOINT lRing1
              {
                OFFSET 8.82822 0.546677 1.51678
                CHANNELS 3 Zrotation Xrotation Yrotation
                JOINT lRing2
                {
                  OFFSET 2.60934 -0.819778 -0.0198488
                  CHANNELS 3 Zrotation Xrotation Yrotation
                  End Site
                  {
                    OFFSET 2.33842 -0.294052 0.168128
                  }
                }
              }
              JOINT lPinky1
              {
                OFFSET 8.27202 -0.0477905 -0.4584
                CHANNELS 3 Zrotation Xrotation Yrotation
                JOINT lPinky2
                {
                  OFFSET 1.82734 -0.647385 -0.700984
                  CHANNELS 3 Zrotation Xrotation Yrotation
                  End Site
                  {
                    OFFSET 1.69225 -0.51767 -0.607171
                  }
                }
              }
            }
          }
        }
      }
    }
  }
  JOINT rButtock
  {
    OFFSET -8.77824 4.35084 1.2192
    CHANNELS 3 Zrotation Xrotation Yrotation
    JOINT rThigh
    {
      OFFSET 0 -1.70687 -2.19456
      CHANNELS 3 Zrotation Xrotation Yrotation
      JOINT rShin
      {
        OFFSET 0 -36.8199 0.73152
        CHANNELS 3 Zrotation Xrotation Yrotation
        JOINT rFoot
        {
          OFFSET 0.73152 -45.1104 -5.12064
          CHANNELS 3 Zrotation Xrotation Yrotation
          End Site
          {
            OFFSET -1.1221 -3.69964 12.103
          }
        }
      }
    }
  }
  JOINT lButtock
  {
    OFFSET 8.77824 4.35084 1.2192
    CHANNELS 3 Zrotation Xrotation Yrotation
    JOINT lThigh
    {
      OFFSET 0 -1.70687 -2.19456
      CHANNELS 3 Zrotation Xrotation Yrotation
      JOINT lShin
      {
        OFFSET 0 -36.8199 0.73152
        CHANNELS 3 Zrotation Xrotation Yrotation
        JOINT lFoot
        {
          OFFSET -0.73152 -45.1104 -5.12064
          CHANNELS 3 Zrotation Xrotation Yrotation
          End Site
          {
            OFFSET 1.1221 -3.69964 12.103
          }
        }
      }
    }
  }
}
MOTION
Frames:	8
Frame Time:	0.03333
-11.655 54.585300000000004 -23.5379 -6.078153 77.528469 -0.667233 -4.250466 8.347042 0.442605 3.51631 -11.065414 -5.353474 5.964163 11.472509 30.343179 -7.965493 -17.659317 -5.101501 -0.000219 0.0 -0.001368 -0.000219 0.0 -0.001368 0.405979 -2.508598 -0.54753 77.71107 19.877486 -48.417955 89.20815 35.599863 70.60625 -37.401353 24.634634 18.336128 -178.518256 -16.064637 89.476539 -134.093869 14.276221 68.147155 88.791802 -75.499672 40.049945 38.853547 -36.670696 -3.965792 7.904828 -24.807497 -3.013151 -42.157629 58.535746 36.106071 -69.296106 72.947283 87.016504 5.861711 0.0033 -4.406137 -157.327849 57.246074 -150.514363 -147.984467 10.7953 -141.812955 40.044581 -86.055719 61.575855 101.714773 -11.833756 -165.385119 -8.017247 7.852023 107.191566 144.709461 30.566514 -127.749145 169.57259 -7.253633 -89.929817 149.361322 4.409561 -76.575779 90.226396 41.073133 -75.79649 -8.135112 -3.542368 5.643244 36.036613 51.722736 -29.833016 -5.345722 -5.835487 0.602035 145.118729 0.26821 179.211581 73.708856 -78.001124 95.209468 144.257615 9.237273 141.011487 152.105223 25.875336 144.497805 0.0 0.000812 -2.5e-05 -54.82015 -56.304881 52.366952 96.996463 -0.389167 -103.934728 125.224485 0.499639 6.91901 -179.99909 75.750566 -0.000623 -140.441294 5.560088 -83.310263 -102.038965 6.852439 1.294026 74.741459 -62.337851 139.129062
-11.7992 54.083400000000005 -23.6464 -5.58036 77.339697 -0.009651 -2.118542 4.792448 -119.842745 5.929298 5.001619 114.251469 -7.988203 19.239806 -67.470776 30.949286 4.913567 94.238448 0.000549 -0.0 -0.00186 0.000839 0.0 0.003004 -81.707878 68.336564 84.818778 141.038583 -51.242807 62.892392 -168.978594 -59.782431 46.316457 -143.370085 28.779158 129.131418 -164.887992 -2.559698 89.606955 -114.501722 10.223408 52.32251 -153.45226 -21.067825 121.744999 -118.106337 45.905715 96.158579 -89.835579 60.702921 81.262896 -150.584035 26.670748 136.329619 0.000142 0.063733 0.020323 11.036559 -12.237 -1.534768 -80.938373 -51.227835 -79.360032 -126.046113 -30.218396 -125.030707 0.048607 0.292425 -0.06503 178.286543 3.366377 -107.910692 -81.487916 -83.549932 29.236306 144.283192 31.072476 -127.298612 21.96166 19.238516 -6.993047 129.581278 -29.846002 -104.679508 138.092614 5.494514 -114.615387 49.490757 54.380827 -32.705938 15.422418 32.961835 -11.29556 -3.05938 0.861921 -0.124394 69.296217 72.946709 -87.016916 80.837465 83.127728 -89.76712 158.218846 60.369783 150.795369 128.901881 -28.217467 125.66957 0.007294 -0.000346 0.003647 -53.081598 -56.939914 -57.802055 -136.977285 73.108267 -130.949642 179.343756 12.518421 95.779722 179.992242 75.748249 0.008005 -140.158723 4.537159 -95.693142 -97.383681 1.251534 84.5602 -157.867753 -10.449359 -21.956854
-11.9053 53.5621 -23.7577 -5.065963 77.005449 0.797817 -4.187725 8.288515 0.431783 3.472815 -11.276978 -5.01619 13.069029 20.143838 95.421509 -27.660843 7.477068 -67.591095 0.00046 0.0 0.004609 -0.000637 0.0 -0.001784 -158.416773 -29.366225 166.794538 -69.39437 9.980028 28.463402 -162.011331 25.256965 -81.880187 -16.754296 -61.837522 -19.114853 -94.790573 37.828496 54.284613 19.12161 -27.829614 23.314896 -12.93954 17.785136 8.597613 104.270718 -62.03188 51.61449 -160.09763 -4.9014 142.968366 -166.981346 -15.995585 143.777093 0.005659 1.772494 0.555649 10.183753 0.034527 -0.060123 -3.81028 -9.064955 -3.559654 28.497556 75.205376 6.310207 149.905576 22.421689 -154.975011 173.895753 -9.378584 127.938116 81.082094 -7.369747 -7.507745 171.542702 -61.291863 -164.145503 -51.059651 -41.203911 -12.857035 149.422799 -29.54019 -128.891618 160.013584 -33.011633 -122.700536 61.258793 57.332227 -46.7296 0.057097 0.16791 -0.032698 -18.412845 -43.178205 -0.014887 145.099262 -1.52103 178.650012 -11.94211 26.395255 5.991743 103.17499 -45.371578 101.346431 150.521006 24.602101 145.058093 -0.006305 0.000176 -0.006305 -54.743014 -57.807324 -59.110741 -132.86002 61.221668 -10.476893 178.468783 -9.003376 -135.100216 0.000421 -0.000508 -0.000541 66.513242 -46.715375 60.086477 161.308497 69.829923 -23.941089 88.848128 71.418341 150.704128
-11.9972 53.105000000000004 -23.8293 -4.698845 76.985135 1.38351 -4.135498 8.300653 0.427253 3.46141 -11.351316 -5.055756 -5.580129 27.743955 -120.283129 25.718191 29.540574 142.413523 -0.001691 -0.0 0.001364 0.003979 0.0 0.000599 3.749545 -33.331098 -6.446062 -87.762948 -24.690762 -98.443106 8.172838 -3.3951 -138.686185 -134.975867 36.78099 120.322834 -5.763358 5.575351 1.158253 146.671801 -80.529884 70.254212 -46.209872 39.651534 36.31918 12.99547 -9.736805 -3.377945 -0.570996 1.648525 0.320489 -4.713031 20.801205 4.257734 -0.013991 -1.323303 -0.414907 6.779967 31.045227 4.964741 -124.85206 -29.037072 -122.619398 34.410374 74.527132 0.67826 149.904824 22.421963 -154.975919 -85.978118 42.211633 95.599711 121.628838 -22.534008 -102.806099 165.408189 -16.298847 -150.714784 93.74372 37.964636 -53.548713 -32.12167 -33.551666 -23.208961 -131.505931 -75.33239 -78.379455 -143.011978 -65.733406 -79.751364 -68.980826 -80.155107 -40.575202 163.944098 -6.178527 -143.30241 145.119208 0.310195 179.225537 -8.753931 -14.063808 10.958506 -15.506211 54.13817 -12.13942 146.757645 7.012547 142.03783 0.000331 -0.000395 -0.000425 -56.379242 -58.25789 -60.513359 -140.148927 72.174667 -130.051697 -102.216255 75.540511 0.584814 0.0 0.0003 -0.00122 67.48775 -47.234937 73.076237 154.452311 71.025067 87.010004 172.705833 -16.560506 -140.594826
-12.0816 52.670300000000005 -23.8859 -4.568535 77.050118 1.658077 -4.085929 8.405096 0.429541 3.502888 -11.44997 -5.084516 10.675769 27.365903 139.873256 -22.945688 28.217493 -107.992356 0.000456 -0.0 -0.001117 -0.004503 -0.0 0.005275 -158.800106 -59.220375 173.217106 -61.007061 16.125295 -0.363159 -37.137075 -3.465389 -151.572742 -160.898583 -7.765144 149.935686 -176.599616 -14.212611 89.690859 147.121751 -48.347765 101.312033 -132.818804 12.807521 111.109201 -89.406032 55.568411 67.915006 -161.153273 -8.160483 143.465876 3.08167 0.391505 0.413308 -74.842299 72.962253 92.827516 5.865844 0.89294 -4.422793 -149.122602 25.573388 -145.196373 -148.394899 13.398621 -142.110577 3.768138 17.921027 -4.640788 36.337681 -8.3252 -56.132926 144.360139 -50.248057 83.506321 12.310524 -60.479132 16.486257 176.597993 -14.213244 -89.691291 135.875796 12.877853 -69.011755 151.353198 -17.158073 -121.133882 -12.495142 -2.598777 10.172761 89.835776 60.703573 -81.262969 -175.050075 -56.703816 -138.064015 -0.001519 0.022673 -0.00675 -9.157397 13.411521 -1.768123 133.876638 -15.638198 131.332432 -16.950873 42.660477 -6.172789 0.0033 -0.001033 0.00165 -58.012839 -58.44923 -54.326191 -133.870572 77.502306 155.592463 101.135983 -39.22952 21.321428 -0.0 0.000446 0.001674 68.655638 -47.462069 73.937017 144.66287 63.156104 14.616596 105.125528 45.911621 140.317575
-12.1404 52.245200000000004 -23.9317 -4.517319 77.20979 1.870166 -3.343489 3.793754 -163.001397 -0.744187 7.405412 157.794134 -3.784232 29.178199 -133.655607 20.511591 34.14611 155.916674 0.000387 0.0 0.001344 0.000387 0.0 0.001344 -153.049724 10.023135 158.667296 -92.161472 13.182268 71.569621 23.57829 -39.010465 -127.810639 -123.325613 43.887601 108.080854 -1.583752 1.556179 0.264346 -90.6156 18.773397 83.23492 -162.636396 -37.465325 122.650208 0.863651 22.52292 -4.122588 -152.825095 14.792783 138.514102 -172.22252 -31.373762 143.674049 -75.673052 -72.117443 -92.828513 12.070456 46.258933 2.626774 0.550833 1.455956 0.506796 14.538959 41.805937 8.48451 142.974342 39.43197 -147.390775 -122.142564 32.498621 132.932312 2.579384 18.833338 -74.525107 13.195649 -46.070124 11.897744 -3.051265 -3.03237 0.389625 5.85355 6.246903 -2.980392 140.762325 1.38032 -116.22912 157.305478 -3.149344 -118.463532 174.670248 -47.95398 -144.480579 56.377788 62.036348 -49.501488 -0.005559 1.770253 -0.557454 -6.004503 33.717905 -5.587008 -7.927708 24.811701 -7.002834 159.39642 53.208377 149.798424 -179.994376 75.749264 -0.004628 152.178672 1.364801 95.071274 102.466633 11.792281 -131.113466 -124.063249 -45.940358 -27.730622 179.963954 75.749262 0.027782 -141.732484 1.292758 91.638239 109.208227 -12.430456 8.105331 -39.888892 19.148523 -83.149029
-12.1809 51.8396 -23.9841 -4.450104 77.384519 2.039021 -2.42162 7.953916 -41.688085 8.897068 -6.868144 36.834581 -7.534208 17.273797 -55.777168 29.821268 -0.765321 83.519793 0.002458 0.0 0.000304 0.002001 -0.0 -0.000416 -153.5906 -75.693417 -178.260604 131.825684 -6.890825 -164.468145 107.30375 43.710628 90.08075 -68.557078 46.88562 51.414313 -121.364535 30.329721 71.958119 -90.640391 -4.270478 53.054578 37.213629 -57.91853 -0.64508 -76.677746 51.393052 63.89459 -161.154714 -8.160638 143.464361 -34.80305 54.913651 29.48532 -0.014626 -1.323248 -0.415253 -49.654798 77.901336 63.017787 -117.920707 -36.067279 -115.852915 4.263172 2.744195 -0.685233 -3.269446 -26.755813 5.241235 88.896166 10.881171 -106.720242 -1.898583 10.204403 105.110482 148.453499 25.754533 -131.629463 177.746453 -15.324684 -89.569557 -179.380596 -16.926857 -98.081028 -73.419982 -73.571256 -26.562294 82.310375 52.417897 -69.022607 -6.531715 -20.415111 2.719302 1.379599 12.626754 -2.180537 0.000311 -0.018729 0.004541 35.195694 75.972685 -48.347691 140.004238 -2.494157 137.118167 140.050477 -6.920538 136.24062 179.992464 75.749666 0.004413 154.103466 0.770242 -91.586042 -102.093857 -9.553231 123.899331 -68.844573 14.12523 -20.15192 -179.994326 75.748358 -0.003882 -140.486606 1.708062 0.0 169.174207 79.014372 157.839183 129.148378 23.967666 -18.183633
-12.2393 51.479200000000006 -24.0151 -3.972698 77.528083 2.619808 -4.130471 8.684158 -0.0 3.73845 -11.689353 -4.990171 -7.528355 17.081561 -55.539556 29.867357 -0.864651 83.059159 0.003804 -0.0 -0.001626 -0.001645 -0.0 0.004049 -13.945971 42.750751 15.783324 85.709083 86.857071 -5.070477 98.131282 83.839622 125.232563 -132.250065 38.746268 117.503599 -9.137571 8.700468 2.078415 -38.194197 23.283434 37.87808 -148.887149 -12.610225 120.243166 -152.127582 4.548457 117.844592 -36.035276 51.723451 29.831882 167.99314 -64.090028 133.006913 0.005989 0.917747 0.288516 -44.366068 77.333227 57.509574 -168.128733 80.280991 -148.049284 9.658946 24.926857 4.560113 -3.737455 -33.150931 6.412796 84.204459 12.305803 -111.264504 -6.515221 17.805672 106.444271 146.304068 28.972323 -129.151059 1.584291 1.555971 -0.26414 8.466767 9.336289 -8.165904 83.733134 42.330919 -69.989798 67.301696 52.340939 -46.692357 -68.984346 -80.15386 -40.578364 -80.70978 -77.828878 -52.450182 145.109186 3.761508 -179.688728 142.127638 -56.56141 163.989791 26.563169 -38.86184 25.60421 -15.872351 42.781868 -8.167096 -179.999999 75.750238 -1e-06 151.494361 0.13344 89.988774 113.776068 15.181792 131.109815 132.942566 -33.799964 -163.533153 179.999996 75.750238 3e-06 -140.421775 -1.153557 -180.0 -161.285015 -63.686682 155.395487 -64.851299 -18.330931 -139.771929
